<?xml version="1.0" encoding="utf-8"?>
<!-- Generator: Adobe Illustrator 19.0.0, SVG Export Plug-In . SVG Version: 6.00 Build 0)  -->
<svg version="1.1" xmlns="http://www.w3.org/2000/svg" xmlns:xlink="http://www.w3.org/1999/xlink" x="0px" y="0px"
	 viewBox="0 0 114.2 114.2" style="enable-background:new 0 0 114.2 114.2;" xml:space="preserve">
<style type="text/css">
	.st0{fill:#F9A140;}
	.st1{opacity:0.1;fill:#272525;}
	.st2{fill:#F4D242;}
</style>
<g id="BG">
	<g>
	</g>
</g>
<g id="Objects">
	<g>
		<g>
			<circle class="st0" cx="57.1" cy="57.1" r="47.5"/>
			<path class="st1" d="M56.8,5.3C28.2,5.5,5.1,28.8,5.3,57.4c0.2,28.6,23.5,51.6,52.1,51.5c28.6-0.2,51.6-23.5,51.5-52.1
				C108.7,28.2,85.4,5.1,56.8,5.3z M57.4,100.2c-23.8,0.1-43.2-19-43.4-42.8C13.9,33.6,33,14.2,56.8,14c23.8-0.1,43.2,19,43.4,42.8
				C100.3,80.6,81.2,100,57.4,100.2z"/>
			<path class="st2" d="M56.8,0C25.2,0.2-0.2,25.9,0,57.4c0.2,31.5,25.9,56.9,57.4,56.8c31.5-0.2,56.9-25.9,56.8-57.4
				C114,25.2,88.3-0.2,56.8,0z M57.4,104.6c-26.2,0.2-47.6-21-47.8-47.2C9.4,31.2,30.6,9.8,56.8,9.6c26.2-0.2,47.6,21,47.8,47.2
				C104.8,83.1,83.6,104.4,57.4,104.6z"/>
		</g>
		<path class="st2" d="M76.1,59.9c-1.4-1.9-3.6-3.3-6.4-4.3c1.8-1,3.1-2.3,4-3.9c0.9-1.6,1.3-3.4,1.3-5.5c0-4.2-1.5-7.4-4.5-9.5
			c-3-2.2-7.3-3.2-12.9-3.2l-2,0c0-1.9,0-3.8,0-5.7c0-1.7-3.2-1.7-3.1,0c0,1.9,0,3.8,0,5.7l-2,0c0-1.9,0-3.8,0-5.7
			c0-1.7-3.2-1.7-3.1,0c0,1.9,0,3.8,0,5.7L39,33.5c-0.9,0-1.6,0.3-2.1,0.8c-0.5,0.5-0.7,1.2-0.7,2.1c0,1.1,0.3,1.8,0.9,2.2
			c0.6,0.4,1.9,0.6,4,0.6l1.3,0l0.2,35.9l-1.3,0c-2.2,0-3.6,0.2-4.2,0.6c-0.6,0.4-0.9,1.1-0.9,2.2c0,1,0.2,1.7,0.7,2.1
			c0.5,0.5,1.2,0.7,2.1,0.7l8.5-0.1c0,1.9,0,3.8,0,5.7c0,1.7,3.2,1.7,3.1,0c0-1.9,0-3.8,0-5.7l2,0c0,1.9,0,3.8,0,5.7
			c0,1.7,3.2,1.7,3.1,0c0-1.9,0-3.8,0-5.7l1,0l3.4,0c2.9,0,5.2-0.2,6.8-0.5c1.6-0.3,3-0.9,4.3-1.6c2.2-1.3,3.9-2.9,5-4.9
			c1.2-2,1.8-4.2,1.8-6.6C78.2,64.1,77.5,61.7,76.1,59.9z M58.5,39.1c3.1,0,5.5,0.6,7.1,1.9c1.7,1.3,2.5,3.1,2.5,5.4
			c0,2.5-0.9,4.4-2.7,5.6c-1.8,1.2-4.6,1.8-8.4,1.8l-1.4,0c0-4.9-0.1-9.8-0.1-14.7L58.5,39.1z M52.5,39.2c0,4.9,0.1,9.8,0.1,14.7
			l-2,0c0-4.9-0.1-9.8-0.1-14.7L52.5,39.2z M50.6,75.1c0-5.5-0.1-10.9-0.1-16.4l2,0c0,5.5,0.1,10.9,0.1,16.4L50.6,75.1z M68.3,73.1
			c-2,1.3-5.6,1.9-10.6,2l-1.9,0c0-5.5-0.1-10.9-0.1-16.4l2.3,0c4.9,0,8.4,0.6,10.3,1.8c2,1.2,3,3.3,3,6.3
			C71.3,69.8,70.3,71.9,68.3,73.1z"/>
	</g>
</g>
</svg>
