<?xml version="1.0" encoding="utf-8"?>
<!-- Generator: Adobe Illustrator 19.0.0, SVG Export Plug-In . SVG Version: 6.00 Build 0)  -->
<svg version="1.1" id="OBJECTS" xmlns="http://www.w3.org/2000/svg" xmlns:xlink="http://www.w3.org/1999/xlink" x="0px" y="0px"
	 viewBox="0 0 500 500" style="enable-background:new 0 0 500 500;" xml:space="preserve">
<style type="text/css">
	.st0{fill:none;stroke:#FCE5A7;stroke-width:4;stroke-miterlimit:10;}
	.st1{fill:#FCE5A7;}
	.st2{fill:#F8931F;}
	.st3{fill:#FDDA64;}
	.st4{fill:none;stroke:#FCE5A7;stroke-miterlimit:10;}
	.st5{clip-path:url(#SVGID_2_);fill:none;stroke:#FCE5A7;stroke-width:4;stroke-miterlimit:10;}
	.st6{clip-path:url(#SVGID_2_);fill:none;stroke:#FCE5A7;stroke-miterlimit:10;}
</style>
<g>
	<line class="st0" x1="328.3" y1="161.8" x2="375.1" y2="161.8"/>
	<circle class="st1" cx="376.9" cy="161.8" r="3.1"/>
</g>
<g>
	<line class="st0" x1="333.2" y1="189.2" x2="405.8" y2="189.2"/>
	<circle class="st1" cx="407.7" cy="189.2" r="3.1"/>
</g>
<g>
	<line class="st0" x1="308.7" y1="235.9" x2="381.3" y2="235.9"/>
	<circle class="st1" cx="383.1" cy="235.9" r="3.1"/>
</g>
<path class="st2" d="M335.9,255.2c-7.1-8.4-18.1-13.9-33.2-16.8V237c12.1-2.1,21.4-7.4,27.8-15.7c6.4-8.3,9.7-18.7,9.7-31.2
	c0-18.6-6.6-32.1-19.7-40.7c-8-5.2-19-8.9-33.1-10.9V98.7h-27.7v37.9c-1.1,0-2.1,0-3.2,0h-3.7h-6.7V98.7h-27.7v37.8H193h-31.6v29.3
	H193v155.6h-31.6v29.3H193l0,0h25.5v38.5h27.7v-38.5h13.6v38.5h27.7v-39.5c15.9-2.1,28.9-7.1,38.9-15.3c13.4-10.9,20.1-26,20.1-45.2
	C346.5,274.9,343,263.6,335.9,255.2z M252.9,165.8h5.5c15.8,0,27.4,2.2,34.6,6.7c7.3,4.5,10.9,11.8,10.9,21.8
	c0,11.1-3.4,19-10.1,23.7c-6.7,4.6-17.4,7-32.1,7H228v-59.2h18.1H252.9z M298.4,312.8c-7.5,5.6-18.5,8.4-33.2,8.4H228v-67.8h35.4
	c15.5,0,27.1,2.7,34.7,8.1c7.6,5.4,11.4,13.6,11.4,24.8C309.6,298.3,305.9,307.2,298.4,312.8z"/>
<path class="st3" d="M329.7,247.2c-7.1-8.3-18.1-13.9-33.2-16.8V229c12.1-2.1,21.4-7.4,27.8-15.7c6.4-8.3,9.7-18.7,9.7-31.2
	c0-18.6-6.6-32.1-19.7-40.7c-8-5.2-19-8.9-33.1-10.9V90.7h-27.7v37.9c-1.1,0-2.1,0-3.2,0h-3.7H240V90.7h-27.7v37.8h-25.5h-31.6v29.3
	h31.6v155.6h-31.6v29.3h31.6l0,0h25.5v38.5H240v-38.5h13.6v38.5h27.7v-39.5c15.9-2.1,28.9-7.1,38.9-15.3
	c13.4-10.9,20.1-26,20.1-45.2C340.4,266.9,336.8,255.6,329.7,247.2z M246.7,157.8h5.5c15.8,0,27.4,2.2,34.6,6.7
	c7.3,4.5,10.9,11.8,10.9,21.8c0,11.1-3.4,19-10.1,23.7c-6.7,4.6-17.4,7-32.1,7h-33.7v-59.2H240H246.7z M292.2,304.8
	c-7.5,5.6-18.5,8.4-33.2,8.4h-37.2v-67.8h35.4c15.5,0,27.1,2.7,34.7,8.1c7.6,5.4,11.4,13.6,11.4,24.8
	C303.5,290.3,299.7,299.2,292.2,304.8z"/>
<polygon class="st2" points="161.4,165.8 155.2,157.8 180.7,157.8 183.3,165.8 "/>
<polygon class="st2" points="240,90.7 246.2,98.7 240,106.7 "/>
<polygon class="st2" points="281.3,90.7 287.5,98.7 281.3,114 "/>
<polygon class="st2" points="253.6,381.1 259.8,389.1 264.3,385.1 267.5,381.1 "/>
<polygon class="st2" points="212.3,381.1 218.5,389.1 230.6,381.1 "/>
<polygon class="st2" points="155.2,342.7 161.4,350.7 178,342.7 "/>
<polyline class="st4" points="473.5,157.8 422.5,157.8 398,178.9 339.3,178.9 332.5,167.7 290.8,167.7 291.9,171.9 291.9,177.8 
	276.3,177.8 267.5,171.8 255.8,171.8 "/>
<polyline class="st4" points="254,106.7 265,106.7 271,96.5 281.3,96.5 287.5,106.7 323.5,106.7 340.4,121.5 412.5,121.5 "/>
<path class="st4" d="M239.4,118.5"/>
<polyline class="st0" points="239.4,114 227,114 216.5,102.3 216.5,90.7 "/>
<polyline class="st0" points="221.5,90.7 221.5,72.7 204,51.7 204,36 "/>
<polyline class="st0" points="199,197 199,231.5 221.5,257 228.4,267.6 233.3,267.6 245.8,277.5 269.9,277.5 "/>
<line class="st4" x1="210.2" y1="342.7" x2="210.2" y2="272"/>
<line class="st4" x1="155.2" y1="323" x2="171.5" y2="323"/>
<polygon class="st1" points="303.8,202.8 294.2,202.8 294.7,201.8 303.4,201.8 319.2,189.1 334.3,189.1 340,196.1 339.8,197.6 
	333.8,190.1 319.5,190.1 "/>
<polyline class="st4" points="437,227 405.5,227 380,214.5 334.9,214.5 328.3,207.4 313.2,207.4 295,222 267.5,222 "/>
<polyline class="st4" points="236.5,165.8 233.5,157.8 221.5,151.5 155.2,151.5 "/>
<polygon class="st1" points="272.8,215.6 277.2,214.6 295.4,214.2 320.3,194.7 333.5,194.7 339.2,201.6 338.9,202.9 333,195.7 
	320.7,195.7 295.8,215.2 "/>
<polygon class="st1" points="337.2,209.2 330.4,202.8 321.8,202.8 321.8,201.8 330.8,201.8 337.5,208.2 "/>
<polyline class="st4" points="244.3,161.8 245.5,165.8 245.5,177 260.3,177 "/>
<polyline class="st4" points="198,161.8 221.5,161.8 225.5,168.4 225.5,183.7 228,186.2 250.6,186.2 "/>
<polyline class="st4" points="300.3,263.2 317.2,263.2 333.2,278.5 339.1,278.5 346.5,287 397,287 419.5,263.2 469.5,263.2 "/>
<polyline class="st0" points="437,350.7 402.5,350.7 368.5,327.8 333.2,327.8 326.9,320 294,320 275,336 275,381.1 280.4,389.1 
	280.4,425 273,441 273,453.3 "/>
<polyline class="st4" points="158.3,346.7 193.3,346.7 199.7,350.7 199.7,405 180.3,427.5 180.3,441 "/>
<polyline class="st4" points="302.9,281.5 321.8,295 339.1,295 345.2,302.9 427,302.9 "/>
<polyline class="st4" points="275,320.7 264.8,329 264.8,381.1 269.9,389.1 269.9,417.7 260.3,434 260.3,462.7 "/>
<polyline class="st4" points="236.5,389.1 230.6,381.1 230.6,350.7 220.3,339 220.3,320.7 "/>
<polyline class="st4" points="212.3,346.7 221.5,357.5 221.5,381.1 227,389.1 227,424.5 241.5,441 241.5,450.5 "/>
<polyline class="st4" points="317.2,143.4 271,143.4 261.7,132.5 222.7,132.5 "/>
<polyline class="st0" points="186.9,261.3 122,261.3 88,227 56.7,227 "/>
<polyline class="st0" points="186.9,177.3 155.2,177.3 118.7,195 89.7,195 "/>
<polyline class="st4" points="155.2,156.3 116,156.3 86,134.3 63.7,134.3 "/>
<polyline class="st4" points="155.2,328.7 105.3,328.7 73.3,296 "/>
<line class="st4" x1="302.7" y1="287" x2="269.9" y2="287"/>
<polyline class="st4" points="301.1,270.4 261.2,270.4 246.2,261.5 238.4,261.5 "/>
<polyline class="st4" points="316,336 319.4,339.2 349,339.2 398.8,372 458,372 "/>
<polyline class="st4" points="307.1,301.3 317.2,307.3 335.1,307.3 342.3,314.8 433.8,314.8 451.3,325 467.5,325 "/>
<polyline class="st4" points="294,303.4 311.5,313.8 331.6,313.8 338.4,320.7 397.3,320.7 "/>
<polyline class="st4" points="217.5,237 250,237 250,245.2 255.8,253.5 "/>
<polyline class="st4" points="204,249.3 221.5,267.6 224.3,271 224.3,296 227.9,299.8 254,299.8 "/>
<polyline class="st4" points="212,170.5 221.5,186.2 227.9,192.5 273.3,192.5 "/>
<polyline class="st4" points="296.1,198.3 271.3,198.3 261.5,205.2 247.8,205.2 "/>
<line class="st0" x1="284.4" y1="186.2" x2="297.7" y2="186.2"/>
<polyline class="st4" points="304,328.7 293.3,339.4 297.9,347.7 333.3,347.7 392.7,386.7 412.7,386.7 "/>
<polyline class="st0" points="155.2,136.8 114.3,136.8 80.7,113.3 47,113.3 "/>
<line class="st4" x1="261.5" y1="98.7" x2="261.5" y2="90.7"/>
<polyline class="st4" points="267.6,90.7 267.6,66.7 254,48.7 254,21 "/>
<polyline class="st4" points="186.9,235.9 119.3,235.9 93.3,208.7 33.3,208.7 "/>
<polyline class="st4" points="187.2,296.7 113.1,296.7 76.3,258.3 33,258.3 "/>
<polyline class="st4" points="234.5,90.7 234.5,65 247.8,43.3 247.8,11.5 "/>
<polyline class="st4" points="259.3,90.7 259.3,71.3 252.3,63.3 "/>
<polyline class="st4" points="277.8,90.7 277.8,54.3 294,36 294,24.8 "/>
<circle class="st1" cx="260.6" cy="177" r="1.7"/>
<circle class="st1" cx="244.3" cy="161.8" r="1.7"/>
<circle class="st1" cx="261.5" cy="99.3" r="1.7"/>
<circle class="st1" cx="212" cy="170.5" r="1.7"/>
<circle class="st1" cx="255.1" cy="172.2" r="1.7"/>
<circle class="st1" cx="414.2" cy="121.5" r="1.7"/>
<circle class="st1" cx="252.3" cy="63.3" r="1.7"/>
<circle class="st1" cx="254" cy="19.3" r="1.7"/>
<circle class="st1" cx="294" cy="24.8" r="1.7"/>
<circle class="st1" cx="241.5" cy="450.5" r="1.7"/>
<circle class="st1" cx="33" cy="258.3" r="1.7"/>
<circle class="st1" cx="269.9" cy="287" r="1.7"/>
<circle class="st1" cx="275" cy="320.7" r="1.7"/>
<circle class="st1" cx="243.3" cy="332.8" r="1.7"/>
<circle class="st1" cx="249.5" cy="307.3" r="1.7"/>
<circle class="st1" cx="269.9" cy="277.5" r="2.7"/>
<circle class="st1" cx="55.5" cy="227" r="2.7"/>
<circle class="st1" cx="273" cy="455.3" r="3.1"/>
<circle class="st1" cx="437" cy="350.7" r="3.1"/>
<circle class="st1" cx="282.8" cy="186.2" r="3.1"/>
<circle class="st1" cx="88.3" cy="195.2" r="3.1"/>
<circle class="st1" cx="45.7" cy="113.3" r="3.1"/>
<circle class="st1" cx="204" cy="36" r="3.1"/>
<circle class="st1" cx="199" cy="195" r="3.1"/>
<circle class="st1" cx="307.1" cy="301.3" r="1.7"/>
<circle class="st1" cx="316" cy="335.5" r="1.7"/>
<circle class="st1" cx="220.3" cy="320" r="1.7"/>
<circle class="st1" cx="210.2" cy="272" r="1.7"/>
<circle class="st1" cx="171.5" cy="323" r="1.7"/>
<circle class="st1" cx="216.8" cy="237" r="1.7"/>
<circle class="st1" cx="266.6" cy="221.9" r="1.7"/>
<circle class="st1" cx="321.2" cy="202.3" r="1.7"/>
<circle class="st1" cx="238.4" cy="261.5" r="1.7"/>
<circle class="st1" cx="469.5" cy="263.2" r="1.7"/>
<circle class="st1" cx="62" cy="134.3" r="1.7"/>
<circle class="st1" cx="397.8" cy="320.7" r="1.7"/>
<circle class="st1" cx="365" cy="274.8" r="1.7"/>
<circle class="st1" cx="412.7" cy="386.7" r="1.7"/>
<circle class="st4" cx="244.3" cy="205.2" r="3.3"/>
<circle class="st4" cx="202" cy="246.8" r="3.3"/>
<circle class="st4" cx="253.5" cy="186.2" r="3.3"/>
<circle class="st4" cx="276" cy="192.5" r="3.3"/>
<circle class="st4" cx="247.6" cy="8.2" r="3.3"/>
<circle class="st4" cx="260.3" cy="466" r="3.3"/>
<circle class="st4" cx="180.3" cy="444.3" r="3.3"/>
<circle class="st4" cx="71.5" cy="293" r="3.3"/>
<circle class="st4" cx="29.7" cy="208.5" r="3.3"/>
<circle class="st4" cx="195.2" cy="161.8" r="3.3"/>
<circle class="st4" cx="219.4" cy="132.5" r="3.3"/>
<circle class="st4" cx="257.3" cy="299.8" r="3.3"/>
<circle class="st4" cx="306.2" cy="326.3" r="3.3"/>
<circle class="st4" cx="430.3" cy="302.9" r="3.3"/>
<circle class="st4" cx="440.3" cy="227" r="3.3"/>
<circle class="st4" cx="476.8" cy="157.8" r="3.3"/>
<circle class="st4" cx="470.4" cy="325" r="3.3"/>
<circle class="st4" cx="461.3" cy="371.7" r="3.3"/>
<polyline class="st4" points="251.8,350.7 247.8,342.7 247.8,327.8 255.8,318.3 255.8,313.2 "/>
<polyline class="st4" points="246.2,372 240,363.5 235.3,363.5 235.3,327.7 230.6,321.2 230.6,313.2 "/>
<line class="st4" x1="243.3" y1="313.2" x2="243.3" y2="331.9"/>
<line class="st4" x1="288.3" y1="307.3" x2="250.3" y2="307.3"/>
<g>
	<defs>
		<path id="SVGID_1_" d="M329.7,247.2c-7.1-8.3-18.1-13.9-33.2-16.8V229c12.1-2.1,21.4-7.4,27.8-15.7c6.4-8.3,9.7-18.7,9.7-31.2
			c0-18.6-6.6-32.1-19.7-40.7c-8-5.2-19-8.9-33.1-10.9V90.7h-27.7v37.9c-1.1,0-2.1,0-3.2,0h-3.7H240V90.7h-27.7v37.8h-25.5h-31.6
			v29.3h31.6v155.6h-31.6v29.3h31.6l0,0h25.5v38.5H240v-38.5h13.6v38.5h27.7v-39.5c15.9-2.1,28.9-7.1,38.9-15.3
			c13.4-10.9,20.1-26,20.1-45.2C340.4,266.9,336.8,255.6,329.7,247.2z M246.7,157.8h5.5c15.8,0,27.4,2.2,34.6,6.7
			c7.3,4.5,10.9,11.8,10.9,21.8c0,11.1-3.4,19-10.1,23.7c-6.7,4.6-17.4,7-32.1,7h-33.7v-59.2H240H246.7z M292.2,304.8
			c-7.5,5.6-18.5,8.4-33.2,8.4h-37.2v-67.8h35.4c15.5,0,27.1,2.7,34.7,8.1c7.6,5.4,11.4,13.6,11.4,24.8
			C303.5,290.3,299.7,299.2,292.2,304.8z"/>
	</defs>
	<clipPath id="SVGID_2_">
		<use xlink:href="#SVGID_1_"  style="overflow:visible;"/>
	</clipPath>
	<polyline class="st5" points="155.2,140.7 233.2,140.7 246.2,149.3 323.5,149.3 	"/>
	<polyline class="st5" points="186.9,173 203,173 212.3,185.5 212.3,220.5 224,231.5 314.3,231.5 	"/>
	<polyline class="st5" points="183.3,246.8 199,265.5 199,321.5 186.9,336 155.2,336 	"/>
	<polyline class="st5" points="313.1,138.7 276.6,138.7 267,128 267,113.3 280.9,113.3 287.5,114 317.2,114 340.4,134 430,134 	"/>
	<polyline class="st6" points="267.5,253.5 261.5,245.5 261.5,237 318.7,237 	"/>
	<polyline class="st5" points="295.4,174.3 317.2,174.3 323.5,182.3 333.2,182.3 340.2,190.1 387.3,190.1 414.5,204 457.5,204 	"/>
</g>
<polyline class="st4" points="288.3,256.7 283.8,249.3 308.7,249.3 333.2,270.3 339.1,270.3 345.6,274.8 365,274.8 "/>
</svg>
