<?xml version="1.0" encoding="utf-8"?>
<!-- Generator: Adobe Illustrator 19.0.0, SVG Export Plug-In . SVG Version: 6.00 Build 0)  -->
<svg version="1.1" id="_x35_608f773-9105-4ac5-92ee-00dc8494bf09"
	 xmlns="http://www.w3.org/2000/svg" xmlns:xlink="http://www.w3.org/1999/xlink" x="0px" y="0px" viewBox="179 14.3 969.5 765.7"
	 style="enable-background:new 179 14.3 969.5 765.7;" xml:space="preserve">
<style type="text/css">
	.st0{fill:none;stroke:#535461;stroke-width:2;stroke-miterlimit:10;}
	.st1{fill:#F0B500;}
	.st2{opacity:0.25;enable-background:new    ;}
	.st3{opacity:0.1;}
	.st4{fill:#00FFFF;}
	.st5{fill:url(#SVGID_1_);}
	.st6{fill:#333333;}
	.st7{fill:#FDB797;}
	.st8{fill:#252A62;}
	.st9{opacity:0.1;enable-background:new    ;}
	.st10{fill:#F55F44;}
	.st11{fill:#72351C;}
	.st12{fill:url(#SVGID_2_);}
	.st13{fill:url(#SVGID_3_);}
	.st14{fill:url(#SVGID_4_);}
	.st15{fill:#FFC533;}
	.st16{fill:#3AD29F;}
	.st17{fill:#535461;}
	.st18{fill:#F0B500;enable-background:new    ;}
	.st19{opacity:0.5;fill:#FFFFFF;enable-background:new    ;}
</style>
<title>btc_p2p</title>
<path class="st0" d="M399.9,661.5c0,0-29.1-98.8,5.5-171.6c14.5-30.5,19.3-64.8,12.6-97.9c-3.2-15.7-7.8-31.1-13.9-46"/>
<path class="st1" d="M425.6,300.1c0,12.1-21.9,47.2-21.9,47.2s-21.9-35.1-21.9-47.2c0-12.1,9.8-21.9,21.9-21.9
	C415.8,278.2,425.6,288,425.6,300.1L425.6,300.1L425.6,300.1z"/>
<path class="st1" d="M461.9,367.2c-6.6,10.2-44.1,27.7-44.1,27.7s0.7-41.4,7.3-51.6c6.6-10.2,20.2-13.1,30.3-6.5
	C465.6,343.4,468.5,357,461.9,367.2L461.9,367.2z"/>
<path class="st1" d="M460.3,481.9c-10.8,5.5-52,1.7-52,1.7s21.4-35.4,32.3-40.9c10.9-5.4,24-0.9,29.4,9.9
	C475.2,463.4,471,476.4,460.3,481.9z"/>
<path class="st1" d="M439.6,568.3c-9.7,7.2-51,10.5-51,10.5s15.2-38.5,24.9-45.7c9.7-7.3,23.4-5.4,30.7,4.2
	c7.3,9.7,5.4,23.4-4.2,30.7C439.9,568.1,439.7,568.2,439.6,568.3L439.6,568.3z"/>
<path class="st1" d="M371.7,397.3c8.7,8.4,49.2,17.2,49.2,17.2s-9.9-40.2-18.6-48.6c-8.7-8.4-22.6-8.1-31,0.6
	C363,375.1,363.2,388.9,371.7,397.3z"/>
<path class="st1" d="M348.8,498.7c10.8,5.5,52,1.7,52,1.7s-21.5-35.4-32.3-40.8c-10.8-5.5-24-1.3-29.5,9.5
	c-5.5,10.8-1.3,24,9.5,29.5C348.5,498.6,348.6,498.7,348.8,498.7L348.8,498.7z"/>
<path class="st1" d="M340,600.4c9.7,7.2,51,10.5,51,10.5s-15.2-38.5-24.9-45.7c-9.8-7.1-23.5-4.9-30.6,5
	C328.5,579.7,330.5,593.2,340,600.4L340,600.4z"/>
<path class="st2" d="M425.6,300.1c0,12.1-21.9,47.2-21.9,47.2s-21.9-35.1-21.9-47.2c0-12.1,9.8-21.9,21.9-21.9
	C415.8,278.2,425.6,288,425.6,300.1L425.6,300.1L425.6,300.1z"/>
<path class="st2" d="M461.9,367.2c-6.6,10.2-44.1,27.7-44.1,27.7s0.7-41.4,7.3-51.6c6.6-10.2,20.2-13.1,30.3-6.5
	C465.6,343.4,468.5,357,461.9,367.2L461.9,367.2z"/>
<path class="st2" d="M460.3,481.9c-10.8,5.5-52,1.7-52,1.7s21.4-35.4,32.3-40.9c10.9-5.4,24-0.9,29.4,9.9
	C475.2,463.4,471,476.4,460.3,481.9z"/>
<path class="st2" d="M439.6,568.3c-9.7,7.2-51,10.5-51,10.5s15.2-38.5,24.9-45.7c9.7-7.3,23.4-5.4,30.7,4.2
	c7.3,9.7,5.4,23.4-4.2,30.7C439.9,568.1,439.7,568.2,439.6,568.3L439.6,568.3z"/>
<path class="st2" d="M371.7,397.3c8.7,8.4,49.2,17.2,49.2,17.2s-9.9-40.2-18.6-48.6c-8.7-8.4-22.6-8.1-31,0.6
	C363,375.1,363.2,388.9,371.7,397.3z"/>
<path class="st2" d="M348.8,498.7c10.8,5.5,52,1.7,52,1.7s-21.5-35.4-32.3-40.8c-10.8-5.5-24-1.3-29.5,9.5
	c-5.5,10.8-1.3,24,9.5,29.5C348.5,498.6,348.6,498.7,348.8,498.7L348.8,498.7z"/>
<path class="st2" d="M340,600.4c9.7,7.2,51,10.5,51,10.5s-15.2-38.5-24.9-45.7c-9.8-7.1-23.5-4.9-30.6,5
	C328.5,579.7,330.5,593.2,340,600.4L340,600.4z"/>
<path class="st0" d="M958.3,608.4c0,0-29.1-98.8,5.4-171.6c14.5-30.5,19.3-64.8,12.6-97.9c-3.2-15.7-7.8-31.1-13.9-46"/>
<path class="st1" d="M984,247c0,12.1-21.9,47.2-21.9,47.2s-21.9-35.1-21.9-47.2c0-12.1,9.8-21.9,21.9-21.9
	C974.2,225,984,234.8,984,247C984,247,984,247,984,247z"/>
<path class="st1" d="M1020.3,314.1c-6.6,10.2-44.1,27.7-44.1,27.7s0.7-41.4,7.3-51.6c6.6-10.2,20.2-13.1,30.3-6.5
	C1023.9,290.3,1026.9,303.9,1020.3,314.1z"/>
<path class="st1" d="M1018.7,428.7c-10.8,5.5-52,1.7-52,1.7s21.5-35.4,32.3-40.8c10.6-5.8,24-1.9,29.8,8.8c5.8,10.6,1.9,24-8.8,29.8
	C1019.6,428.3,1019.2,428.5,1018.7,428.7z"/>
<path class="st1" d="M998,515.2c-9.7,7.2-51,10.5-51,10.5s15.2-38.5,24.9-45.7c9.6-7.4,23.4-5.6,30.8,4c7.4,9.6,5.6,23.4-4,30.8
	C998.4,514.8,998.2,515,998,515.2z"/>
<path class="st1" d="M930.1,344.2c8.7,8.4,49.2,17.2,49.2,17.2s-9.9-40.2-18.6-48.7c-8.7-8.4-22.6-8.2-31,0.4
	C921.2,321.8,921.4,335.7,930.1,344.2z"/>
<path class="st1" d="M907.2,445.6c10.8,5.5,52,1.7,52,1.7s-21.5-35.4-32.3-40.8c-10.8-5.5-24-1.3-29.5,9.5
	c-5.5,10.8-1.3,24,9.5,29.5C907,445.5,907.1,445.5,907.2,445.6z"/>
<path class="st1" d="M898.4,547.3c9.7,7.2,51,10.5,51,10.5s-15.2-38.5-24.9-45.7c-9.8-7.1-23.5-4.9-30.6,4.9
	C886.9,526.6,888.9,540.1,898.4,547.3L898.4,547.3z"/>
<path class="st2" d="M984,247c0,12.1-21.9,47.2-21.9,47.2s-21.9-35.1-21.9-47.2c0-12.1,9.8-21.9,21.9-21.9
	C974.2,225,984,234.8,984,247C984,247,984,247,984,247z"/>
<path class="st2" d="M1020.3,314.1c-6.6,10.2-44.1,27.7-44.1,27.7s0.7-41.4,7.3-51.6c6.6-10.2,20.2-13.1,30.3-6.5
	C1023.9,290.3,1026.9,303.9,1020.3,314.1z"/>
<path class="st2" d="M1018.7,428.7c-10.8,5.5-52,1.7-52,1.7s21.5-35.4,32.3-40.8c10.6-5.8,24-1.9,29.8,8.8c5.8,10.6,1.9,24-8.8,29.8
	C1019.6,428.3,1019.2,428.5,1018.7,428.7z"/>
<path class="st2" d="M998,515.2c-9.7,7.2-51,10.5-51,10.5s15.2-38.5,24.9-45.7c9.6-7.4,23.4-5.6,30.8,4c7.4,9.6,5.6,23.4-4,30.8
	C998.4,514.8,998.2,515,998,515.2z"/>
<path class="st2" d="M930.1,344.2c8.7,8.4,49.2,17.2,49.2,17.2s-9.9-40.2-18.6-48.7c-8.7-8.4-22.6-8.2-31,0.4
	C921.2,321.8,921.4,335.7,930.1,344.2z"/>
<path class="st2" d="M907.2,445.6c10.8,5.5,52,1.7,52,1.7s-21.5-35.4-32.3-40.8c-10.8-5.5-24-1.3-29.5,9.5
	c-5.5,10.8-1.3,24,9.5,29.5C907,445.5,907.1,445.5,907.2,445.6z"/>
<path class="st2" d="M898.4,547.3c9.7,7.2,51,10.5,51,10.5s-15.2-38.5-24.9-45.7c-9.8-7.1-23.5-4.9-30.6,4.9
	C886.9,526.6,888.9,540.1,898.4,547.3L898.4,547.3z"/>
<g class="st3">
	<path class="st4" d="M179.9,780c11.1-4,1.4-0.7-0.6-0.1C179.5,780,179.7,780,179.9,780z"/>
</g>
<g class="st3">
	<path class="st4" d="M179.3,779.9l-0.3-0.1v0.2L179.3,779.9z"/>
</g>
<linearGradient id="SVGID_1_" gradientUnits="userSpaceOnUse" x1="931.1013" y1="35.2372" x2="931.1013" y2="589.642" gradientTransform="matrix(1 0 0 -1 -115.27 729.53)">
	<stop  offset="0" style="stop-color:#808080;stop-opacity:0.25"/>
	<stop  offset="0.54" style="stop-color:#808080;stop-opacity:0.12"/>
	<stop  offset="1" style="stop-color:#808080;stop-opacity:0.1"/>
</linearGradient>
<path class="st5" d="M941,654.9c0-0.1,0-0.3,0.1-0.4s0-0.1,0-0.1c0-0.2,0-0.5,0-0.8c0,0-1.3-2.6-2.9-6.1l0,0
	c-2.1-4.8-4.7-11.5-4.7-15.9c0,0-23.4-81.8-39.2-90.7c0,0-13-23.2-12.9-36.2c0-4.2-0.3-8.3-1-12.4c-2.3-14.4-6.2-41.9-2.6-46.9
	c4.5-6.4,11.9-34.2-5.9-55.2l3.1-0.5c0,0-0.2-0.2-0.5-0.6l0.5-0.1c0,0-6.9-8.3-6.9-26.5c0.1-10.5,2.5-24.2,9.6-41.5
	c0.9-2.3,1.8-4.6,2.6-6.8c3.3-1.7,6.4-3.8,9-6.5l0.3-0.3l0.4-0.3c6.6-6.6,10.5-15.4,13.3-24.3c2.5-8.2,4.2-16.6,4.8-25.1
	c0.7-9.3,0.3-18.6,0-27.9c-0.5-10.8-1-22-5.3-31.9c-1.7-3.9-4-7.5-5-11.6c-0.6-2.8-1-5.7-1.2-8.5c-1.4-11.2-6.8-22.1-15.5-29.3
	s-20.9-10.4-31.8-7.4c-6.2,1.7-11.8,5.3-17,9.2c-2.2,1.7-4.3,3.5-6.3,5.5c-6.3,6.1-11,14.2-6.5,22.7c0.3,0.6,0.7,1.2,1.1,1.8
	c-9.1,14.5-4.7,33.6,9.8,42.6c1.5,1,3.1,1.8,4.8,2.5l0.8,1.4h0.1c2.4,4.4,5,9.9,5.6,14c-3,2.1-5.7,4.6-8,7.4
	c-8.1,9.7-12.5,16.2-14.9,20.5c-2.3,4-4.9,7.7-7.9,11.1c-3.7,4.3-8,12.8-8,28.6c0,1.2,0,2.4,0,3.6c-19.4,21.1-94.9,5.6-94.9,5.6
	c-9.1-3.5-19.7,0.7-24.7,3.2c-1.5,0.7-2.1,2.5-1.4,4c0.1,0.2,0.2,0.4,0.4,0.6c8,9.6,27.7,3.9,27.7,3.9s70.8,12.4,76.3,16.5
	c3.7,2.8,10.3,0.5,14.2-1.2l-0.8,0.9l1-0.5l-5.4,48.9h0.1l-0.1,0.7c0,0,1.3-0.1,3.3-0.3l1.7,4.3h-0.1l1.7,4.1l0,0l1.4,3.4
	c-4.3,15.4-21.5,79-19.7,93.5c0,0-11,26.1-6.9,40.5c0,0-15.1,108.6-24.7,114.1l1.3,0.6c-10.3,5.9-32.6,16.9-48.1,11.8
	c0,0-9.6,2.8,5.5,12.4c0,0,61.8,16.5,70.1,11l-1.4-23.8l0.7,0.3c0.1-1.3,1-11.2,4.8-15.7c0,0,24.7-67.3,23.4-101.7l23.1-55.8
	c2.5,6.4,5.2,11.8,7.8,15.3l9.6,24.7l15.8,20.6c0,0,49.5,78.3,46,101.7l1.2,0.3c-4.6,8.2-16.2,25.1-32.8,25.1
	c0,0-14.4,15.1,12.4,13.1c0,0,33.7-2.1,58.4-15.8L941,654.9z"/>
<path class="st6" d="M765.6,648.5c0,0-31.8,21.2-51.7,14.6c0,0-9.3,2.7,5.3,11.9c0,0,59.7,15.9,67.6,10.6l-2-34.5L765.6,648.5z"/>
<path class="st6" d="M915.4,648.5c0,0-12.6,28.5-33.8,28.5c0,0-13.9,14.6,11.9,12.6c0,0,32.5-2,56.3-15.2l-11.4-29.7L915.4,648.5z"
	/>
<polygon class="st7" points="802.1,395.7 807.1,408.6 839.5,406.3 836.2,384.4 "/>
<path class="st8" d="M809.4,408.6c0,0-21.9,77.6-19.9,93.5c0,0-10.6,25.2-6.6,39.1c0,0-14.6,104.7-23.9,110c0,0,27,12.2,27.8,11.9
	c9.3-3.3-0.7,0-0.7,0s0.7-10.6,4.6-15.2c0,0,23.9-65,22.5-98.1l31.8-76.9L809.4,408.6z"/>
<path class="st9" d="M809.4,408.6c0,0-21.9,77.6-19.9,93.5c0,0-10.6,25.2-6.6,39.1c0,0-14.6,104.7-23.9,110c0,0,27,12.2,27.8,11.9
	c9.3-3.3-0.7,0-0.7,0s0.7-10.6,4.6-15.2c0,0,23.9-65,22.5-98.1l31.8-76.9L809.4,408.6z"/>
<path class="st8" d="M805.4,404.6l14.6,34.5c0,0,11.3,56.3,23.2,71.6l9.3,23.9l15.2,19.9c0,0,47.7,75.5,44.4,98.1c0,0,29.8,8,29.2-2
	c0,0-7.3-13.9-7.3-21.2c0,0-22.5-78.9-37.8-87.5c0,0-12.5-22.3-12.4-34.9c0-4-0.3-8-1-12c-2.2-13.9-5.9-40.4-2.5-45.2
	c4.6-6.6,12.6-37.1-9.9-57.7L805.4,404.6z"/>
<path class="st9" d="M941.3,650.5c0,0-7.3-13.9-7.3-21.2c0,0-22.5-78.9-37.8-87.5c0,0-12.5-22.3-12.4-34.9c0-4-0.3-8-1-12
	c-2.2-13.9-5.9-40.4-2.5-45.2c4.6-6.6,12.6-37.1-9.9-57.7l-3.8,0.8c21.5,20.5,13.7,50.4,9.2,56.9c-4.6,6.6,4,53.7,4,53.7
	c-3.3,11.3,11.9,38.4,11.9,38.4c15.2,8.6,37.8,87.5,37.8,87.5c0,7.3,7.3,21.2,7.3,21.2c0.2,3.3-2.9,4.6-7.2,4.9
	C935.9,655.8,941.6,654.9,941.3,650.5z"/>
<path class="st7" d="M835.9,231.6c0,0,12.6,19.2,9.3,25.2l32.5-8c0,0-8.6-9.3-6.6-31.8L835.9,231.6z"/>
<path class="st9" d="M882.3,245.6c0,0-27.2-6-44.4,14.6c-7.8,9.3-12.1,15.6-14.4,19.7c-2.2,3.8-4.8,7.4-7.6,10.8
	c-4.3,5.1-9.6,16.1-7.1,38.4l-8,71.6c0,0,23.2-2,29.2,0s47.7-4.6,47.7-4.6s-16.6-19.9,2.7-66.3C899.5,283.3,882.3,245.6,882.3,245.6
	z"/>
<path class="st10" d="M882.3,244.9c0,0-27.2-6-44.4,14.6c-7.8,9.3-12.1,15.6-14.4,19.7c-2.2,3.8-4.8,7.4-7.6,10.8
	c-4.3,5.1-9.6,16.1-7.1,38.4l-8,71.6c0,0,23.2-2,29.2,0s47.7-4.6,47.7-4.6s-16.6-19.9,2.7-66.3C899.5,282.7,882.3,244.9,882.3,244.9
	z"/>
<path class="st9" d="M849.5,306.2c0,0-25.9,37.1-37.8,43.8l-6.6,3.3C805.1,353.3,846.8,306.2,849.5,306.2z"/>
<path class="st7" d="M825.3,287.3c0,0,17-6.7,24.3,15.5c0.6,1.8,0.2,3.9-1.1,5.3l-39.7,42.9c0,0-11.3,6.6-16.6,2.6
	c-5.3-4-73.6-15.9-73.6-15.9s-19,5.6-26.7-3.7c-1-1.2-0.9-3,0.4-4c0.2-0.1,0.4-0.3,0.6-0.4c3.7-1.9,9.9-0.8,17.2-1.7
	c5.6-0.7,11.2-0.5,16.8,0.3c22.7,3.6,76.3,9.4,84.6-12.4C822,288,825.3,287.3,825.3,287.3z"/>
<path class="st9" d="M825,287.6c0,0,20.5-3.3,25.2,17.2v-1.3C850.1,303.5,844.2,281,825,287.6z"/>
<path class="st9" d="M871.7,218.4L836.6,233c0,0,1.6,2.4,3.5,5.8c3.4,1.4,8.2,0.5,12.1,0.5c8,0,13.8-2.1,19.2-7.3
	C870.9,228,871.2,223.9,871.7,218.4z"/>
<circle class="st7" cx="850.5" cy="209.8" r="29.8"/>
<path class="st9" d="M850.5,205.7c0.7,2.3-1.3,4.4-2.6,6.4c-4.8,6.8-3.9,16.1-1.7,24.2c1.1,4,2.7,8.1,6.2,10.2
	c2.8,1.6,6.3,1.6,9.5,2.4c5.7,1.5,10.3,6,13,11.2c2.7,5.2,3.7,11.2,4,17.1c1,17-3.1,33.9-11.8,48.6c8.8,1.5,18-2.5,24.3-8.9
	c6.3-6.4,10.2-14.8,12.8-23.4c2.5-7.9,4-16,4.7-24.2c0.7-8.9,0.3-17.9,0-26.9c-0.4-10.5-0.9-21.2-5.2-30.8
	c-1.7-3.7-3.8-7.3-4.9-11.2c-0.6-2.7-1-5.5-1.2-8.2c-1.4-10.8-6.5-21.3-14.9-28.3s-20.2-10-30.7-7.1c-6,1.7-11.4,5.1-16.4,8.9
	c-8.1,6.1-17.3,16-11.6,26.5C829.1,201.4,840.1,207.4,850.5,205.7z"/>
<path class="st11" d="M851.2,205.1c0.7,2.3-1.3,4.4-2.6,6.4c-4.8,6.8-3.9,16.1-1.7,24.2c1.1,4,2.7,8.1,6.2,10.2
	c2.8,1.6,6.3,1.6,9.5,2.4c5.7,1.5,10.3,6,13,11.2c2.7,5.2,3.7,11.2,4,17.1c1,17-3.1,33.9-11.8,48.6c8.8,1.5,18-2.5,24.3-8.9
	c6.3-6.4,10.2-14.8,12.8-23.4c2.5-7.9,4-16,4.7-24.2c0.7-8.9,0.3-17.9,0-26.9c-0.4-10.5-0.9-21.2-5.2-30.8
	c-1.7-3.7-3.8-7.3-4.9-11.2c-0.6-2.7-1-5.5-1.2-8.2c-1.4-10.8-6.5-21.3-14.9-28.3s-20.2-10-30.7-7.1c-6,1.7-11.4,5.1-16.4,8.9
	c-8.1,6.1-17.3,16-11.6,26.5C829.8,200.7,840.7,206.7,851.2,205.1z"/>
<path class="st9" d="M854.1,353.3c0,0,12.6,0,17.2-6"/>
<path class="st9" d="M854.1,357.9c0,0,12.6,0,17.2-6"/>
<path class="st9" d="M866.1,281.7c0,0-2,15.9-9.3,23.2"/>
<g class="st3">
	
		<linearGradient id="SVGID_2_" gradientUnits="userSpaceOnUse" x1="693.88" y1="50.73" x2="693.88" y2="50.89" gradientTransform="matrix(1 0 0 -1 -115.27 729.53)">
		<stop  offset="0" style="stop-color:#808080;stop-opacity:0.25"/>
		<stop  offset="0.54" style="stop-color:#808080;stop-opacity:0.12"/>
		<stop  offset="1" style="stop-color:#808080;stop-opacity:0.1"/>
	</linearGradient>
	<path class="st12" d="M578.7,678.8v-0.2l-0.2,0.1L578.7,678.8z"/>
</g>
<g class="st3">
	
		<linearGradient id="SVGID_3_" gradientUnits="userSpaceOnUse" x1="691.4348" y1="50.7296" x2="691.4348" y2="52.2896" gradientTransform="matrix(1 0 0 -1 -115.27 729.53)">
		<stop  offset="0" style="stop-color:#808080;stop-opacity:0.25"/>
		<stop  offset="0.54" style="stop-color:#808080;stop-opacity:0.12"/>
		<stop  offset="1" style="stop-color:#808080;stop-opacity:0.1"/>
	</linearGradient>
	<path class="st13" d="M578,678.8c0.2,0,0.3,0,0.5-0.1C576.9,678.2,569.2,675.6,578,678.8z"/>
</g>
<linearGradient id="SVGID_4_" gradientUnits="userSpaceOnUse" x1="657.693" y1="32.8652" x2="657.693" y2="580.3508" gradientTransform="matrix(1 0 0 -1 -115.27 729.53)">
	<stop  offset="0" style="stop-color:#808080;stop-opacity:0.25"/>
	<stop  offset="0.54" style="stop-color:#808080;stop-opacity:0.12"/>
	<stop  offset="1" style="stop-color:#808080;stop-opacity:0.1"/>
</linearGradient>
<path class="st14" d="M677.5,327.7c-5.1-2.5-15.9-6.7-25.1-3.2c0,0-89,17.6-100.2-10.9c-0.5-1.3-1-2.6-1.5-3.9
	c0.2-1.9,0.3-3.7,0.3-5.6c0-2.3-0.1-4.6-0.5-6.9c-0.6-3.3-1.9-6.5-3.8-9.3c-2.2-3.7-4-7.6-5.4-11.7c-4.4-11.9-13.6-21.4-25.4-26
	c0.2-4.3,3.2-10.5,5.9-15.4h0.1l0.8-1.4c11.8-4.5,19.6-15.7,19.7-28.3c0-5.9-1.8-11.7-5.1-16.6c9.4-1.5,6.2-9.5,0.4-16.4
	c-1.1-1.3-2.3-2.6-3.6-3.8c-5.7-5.6-12.8-9.5-20.6-11.2c-0.9-0.2-1.9-0.4-2.8-0.5c-11.3-3.9-23.9-2.4-33.9,4.1
	c-2.5-7.1-9.2-11.7-16.7-11.7c-9.7,0-17.5,7.6-17.5,17s7.8,17,17.5,17h1c-0.6,2.7-1,5.4-1,8.2c0,17.1,12.1,31.5,28.5,35.5l0.3,0.3
	c0,0.3,0,0.6-0.1,0.9l0.1,0.1c-0.6,5-2.2,9.9-4.7,14.3l-0.6-0.1c-12.9,9-17.6,22.6-17.5,36.9c-0.1,12.1,3.3,24.7,8,35
	c1.7,4.1,2.6,8.5,2.5,13c-0.3,15.4-7.3,33.9-12.2,44.7c-1.9,4.3-29.6,71.3-29.6,71.3l0.6-0.2l-0.6,1.5c6.1-1.7,12.6-0.9,18.1,0.6
	c7.7,2,15.8,0.9,22.7-3.2c0.7,3.2,2,6.3,3.8,9.1c3.6,5-0.3,32.1-2.7,46.3c-0.7,4.1-1,8.2-1,12.3c0.1,12.9-13.1,35.7-13.1,35.7
	c-16.1,8.8-40,89.6-40,89.6c0,4.3-2.6,10.9-4.8,15.7l0,0c-1.6,3.5-3,6-3,6c0,0.2,0,0.5,0,0.7c0,0,0,0.1,0,0.1c0,0.1,0,0.3,0.1,0.4
	l-9.2,23.2c25.2,13.6,59.6,15.6,59.6,15.6c27.3,2,12.6-12.9,12.6-12.9c-17,0-28.7-16.7-33.4-24.8l1.2-0.3
	c-3.5-23.1,47-100.4,47-100.4l16.1-20.4l9.8-24.5c2.7-3.4,5.4-8.7,8-15.1l23.5,55.1c-1.4,33.9,23.8,100.4,23.8,100.4
	c3.9,4.4,4.8,14.1,4.9,15.5l0.7-0.2l-1.4,23.5c8.4,5.4,71.5-10.9,71.5-10.9c15.4-9.5,5.6-12.2,5.6-12.2c-15.7,5.1-38.6-5.8-49-11.6
	l1.4-0.6c-9.8-5.4-25.2-112.6-25.2-112.6c4.2-14.3-7-40-7-40c1.3-9.9-6.8-43.2-13.3-67.7c8.3-0.1,16.7-0.9,24.8-2.5
	c-0.5-0.3-1-0.7-1.5-1c1-0.2,1.5-0.3,1.5-0.3c-21.7-13.8-34-60.6-39.3-87.1c1.3,1.1,2.8,2.1,4.3,3l7,3.4l-0.8-0.9
	c3.9,1.7,10.6,4,14.5,1.2c5.6-4.1,77.8-16.3,77.8-16.3s20,5.7,28.2-3.8c1.1-1.2,1-3-0.2-4.1C678,328,677.8,327.9,677.5,327.7z"/>
<circle class="st15" cx="500.2" cy="198.2" r="35.8"/>
<path class="st7" d="M527.1,233.6c0,0-12.6,19.2-9.3,25.2l-32.5-8c0,0,8.6-9.3,6.6-31.8L527.1,233.6z"/>
<path class="st9" d="M491.3,220.4l35.1,14.6c0,0-1.6,2.4-3.5,5.8c-3.4,1.4-8.2,0.5-12.1,0.5c-8,0-13.9-2.1-19.2-7.3
	C492.1,230,491.7,225.9,491.3,220.4z"/>
<circle class="st7" cx="512.5" cy="211.8" r="29.8"/>
<circle class="st15" cx="464.4" cy="173.7" r="16.6"/>
<path class="st9" d="M533.7,195.8c-7.5-0.1-15.9-1.6-21.5,3.3c-4,3.5-5.1,9.3-6.4,14.4c-2,7.8-6.6,16.3-14.5,17.5
	c-4.9,0.7-9.8-1.7-13.2-5.2s-5.7-8-7.8-12.4s-4.2-9-4-13.9c0.2-5.8,3.6-11,7.1-15.6c2.1-2.9,4.4-5.7,7-8.2
	c15.5-14.9,40.2-14.5,55.1,1c0.9,0.9,1.7,1.9,2.5,2.9C544,187.1,547.1,196,533.7,195.8z"/>
<path class="st15" d="M533,195.1c-7.5-0.1-15.9-1.6-21.5,3.3c-4,3.5-5.1,9.3-6.4,14.4c-2,7.8-6.6,16.3-14.5,17.5
	c-4.9,0.7-9.8-1.7-13.2-5.2s-5.7-8-7.8-12.4s-4.2-9-4-13.9c0.2-5.8,3.6-11,7.1-15.6c2.1-2.9,4.4-5.7,7-8.2
	c15.5-14.9,40.2-14.5,55.1,1c0.9,0.9,1.7,1.9,2.5,2.9C543.4,186.4,546.5,195.3,533,195.1z"/>
<path class="st6" d="M597.3,650.5c0,0,31.8,21.2,51.7,14.6c0,0,9.3,2.7-5.3,11.9c0,0-59.7,15.9-67.6,10.6l2-34.5L597.3,650.5z"/>
<path class="st6" d="M447.5,650.5c0,0,12.6,28.5,33.8,28.5c0,0,13.9,14.6-11.9,12.6c0,0-32.5-2-56.3-15.2l11.4-29.7L447.5,650.5z"/>
<path class="st16" d="M553.6,410.6c0,0,21.9,77.5,19.9,93.4c0,0,10.6,25.2,6.6,39.1c0,0,14.6,104.7,23.9,110c0,0-27,12.2-27.8,11.9
	c-9.3-3.3,0.7,0,0.7,0s-0.7-10.6-4.6-15.2c0,0-23.9-65-22.5-98.1l-31.8-76.9L553.6,410.6z"/>
<path class="st9" d="M553.6,410.6c0,0,21.9,77.5,19.9,93.4c0,0,10.6,25.2,6.6,39.1c0,0,14.6,104.7,23.9,110c0,0-27,12.2-27.8,11.9
	c-9.3-3.3,0.7,0,0.7,0s-0.7-10.6-4.6-15.2c0,0-23.9-65-22.5-98.1l-31.8-76.9L553.6,410.6z"/>
<path class="st16" d="M557.6,406.6L543,441.1c0,0-11.3,56.3-23.2,71.6l-9.3,23.9l-15.2,19.9c0,0-47.7,75.5-44.4,98.1
	c0,0-29.8,8-29.2-2c0,0,7.3-13.9,7.3-21.2c0,0,22.5-78.9,37.8-87.5c0,0,12.5-22.3,12.4-34.9c0-4,0.3-8,1-12
	c2.2-13.9,5.9-40.4,2.5-45.2c-4.6-6.6-12.6-37.1,9.9-57.7L557.6,406.6z"/>
<path class="st9" d="M421.7,652.5c0,0,7.3-13.9,7.3-21.2c0,0,22.5-78.9,37.8-87.5c0,0,12.5-22.3,12.4-34.9c0-4,0.3-8,1-12
	c2.2-13.9,5.9-40.4,2.5-45.2c-4.6-6.6-12.6-37.1,9.9-57.7l3.8,0.8c-21.6,20.5-13.8,50.4-9.2,56.9s-4,53.7-4,53.7
	c3.3,11.3-11.9,38.4-11.9,38.4c-15.2,8.6-37.8,87.5-37.8,87.5c0,7.3-7.3,21.2-7.3,21.2c-0.2,3.3,2.9,4.6,7.1,4.9
	C427.1,657.8,421.4,656.9,421.7,652.5z"/>
<path class="st9" d="M486.7,249.2l24.6,6.1c14,3.5,25.2,13.7,30,27.3c1.3,4,3,7.8,5.1,11.4c1.8,2.8,3,5.9,3.6,9.1
	c1,6.5,0.9,17-5.9,28.9c0,0,11.2,84.2,40.3,103.4c0,0-28.4,6.5-53.3-1.5c-16.7-5.4-35-3.1-49.3,7.1l-0.6,0.5
	c-6.7,5-15.3,6.7-23.4,4.5c-5.2-1.5-11.4-2.2-17.1-0.5c0,0,26.2-65.4,28-69.6c6.1-14.2,16.1-41.9,9.1-57.6
	C468,296.3,464.4,263.8,486.7,249.2z"/>
<path class="st17" d="M486.7,247.9l24.6,6.1c14,3.5,25.2,13.7,30,27.3c1.3,4,3,7.8,5.1,11.4c1.8,2.8,3,5.9,3.6,9.1
	c1,6.5,0.9,17-5.9,28.9c0,0,11.2,84.2,40.3,103.4c0,0-28.4,6.5-53.3-1.5c-16.7-5.4-35-3.1-49.3,7.1l-0.6,0.5
	c-6.7,5-15.3,6.7-23.4,4.5c-5.2-1.5-11.4-2.2-17.1-0.5c0,0,26.2-65.4,28-69.6c6.1-14.2,16.1-41.9,9.1-57.7
	C468,294.9,464.4,263.8,486.7,247.9z"/>
<path class="st9" d="M513.5,308.2c0,0,25.9,37.1,37.8,43.7l6.6,3.3C557.9,355.2,516.1,308.2,513.5,308.2z"/>
<path class="st7" d="M537.7,289.3c0,0-17-6.7-24.3,15.5c-0.6,1.8-0.2,3.9,1.1,5.3l39.7,42.9c0,0,11.3,6.6,16.6,2.7
	c5.3-4,73.6-15.9,73.6-15.9s18.8,5.5,26.6-3.6c1.1-1.2,0.9-3.1-0.3-4.1c-0.2-0.1-0.4-0.3-0.5-0.4c-4.1-2.1-11.6-2-19.7-2.7
	c-2.8-0.2-5.6-0.1-8.4,0.4c-17.3,3.1-81.3,12.6-90.4-11.4C541,290,537.7,289.3,537.7,289.3z"/>
<path class="st9" d="M538,289.6c0,0-20.5-3.3-25.2,17.2v-1.3C512.8,305.5,518.8,283,538,289.6z"/>
<path class="st18" d="M752.7,258.5c0,40.6-32.9,73.6-73.6,73.6s-73.6-32.9-73.6-73.6c0-40.6,32.9-73.6,73.6-73.6l0,0
	C719.8,184.9,752.7,217.9,752.7,258.5z M710.7,248c1.5-9.8-6-15-16.2-18.6l3.3-13.3l-8.1-2l-3.2,12.9c-2.1-0.5-4.3-1-6.5-1.5l3.2-13
	l-8.1-2l-3.3,13.3c-1.8-0.4-3.5-0.8-5.2-1.2l0,0l-11.1-2.8l-2.2,8.6c0,0,6,1.4,5.9,1.5c3.3,0.8,3.9,3,3.8,4.7l-3.8,15.1
	c0.3,0.1,0.6,0.2,0.8,0.3l-0.8-0.2l-5.3,21.2c-0.5,1.5-2.1,2.4-3.7,1.9c0,0,0,0,0,0c0.1,0.1-5.9-1.5-5.9-1.5l-4,9.2l10.5,2.6
	c2,0.5,3.9,1,5.8,1.5l-3.3,13.4l8.1,2l3.3-13.3c2.1,0.6,4.3,1.1,6.4,1.7l-3.3,13.2l8.1,2l3.3-13.4c13.8,2.6,24.1,1.5,28.5-10.9
	c3.5-10-0.2-15.8-7.4-19.6C705.6,258.7,709.6,255.2,710.7,248L710.7,248z M692.3,273.9c-2.5,10-19.4,4.6-24.8,3.3l4.4-17.8
	C677.3,260.7,694.9,263.4,692.3,273.9L692.3,273.9z M694.8,247.9c-2.3,9.1-16.3,4.5-20.9,3.4l4-16.1
	C682.5,236.2,697.1,238.4,694.8,247.9L694.8,247.9z"/>
<path class="st0" d="M670.7,646.2c0,0-15.8-53.5,3-92.9c7.9-16.5,10.3-35.1,6.8-53c-1.7-8.5-4.3-16.8-7.5-24.9"/>
<path class="st1" d="M684.6,450.5c0,6.6-11.9,25.6-11.9,25.6s-11.9-19-11.9-25.6c0-6.6,5.3-11.9,11.9-11.9S684.6,444,684.6,450.5
	L684.6,450.5z"/>
<path class="st1" d="M704.2,486.8c-3.6,5.5-23.9,15-23.9,15s0.4-22.4,3.9-27.9c3.6-5.5,10.9-7.1,16.4-3.5S707.8,481.3,704.2,486.8
	L704.2,486.8z"/>
<path class="st1" d="M703.4,548.9c-5.8,3-28.2,0.9-28.2,0.9s11.6-19.2,17.5-22.1c5.9-3,13-0.6,15.9,5.3S709.2,545.9,703.4,548.9
	L703.4,548.9z"/>
<path class="st1" d="M692.1,595.7c-5.3,3.9-27.6,5.7-27.6,5.7s8.2-20.8,13.5-24.8c5.3-3.9,12.7-2.8,16.6,2.5
	C698.5,584.4,697.4,591.8,692.1,595.7L692.1,595.7z"/>
<path class="st1" d="M655.4,503.1c4.7,4.6,26.6,9.3,26.6,9.3s-5.4-21.8-10.1-26.3c-4.5-4.7-12-4.9-16.8-0.4
	c-4.7,4.5-4.9,12-0.4,16.8C655,502.7,655.2,502.9,655.4,503.1L655.4,503.1z"/>
<path class="st1" d="M643,558c5.8,3,28.2,0.9,28.2,0.9s-11.6-19.2-17.5-22.1c-5.9-3-13-0.6-15.9,5.3S637.2,555.1,643,558L643,558z"
	/>
<path class="st1" d="M638.2,613.1c5.3,3.9,27.6,5.7,27.6,5.7s-8.2-20.8-13.5-24.8c-5.3-3.9-12.7-2.8-16.6,2.5
	C631.9,601.7,633,609.2,638.2,613.1L638.2,613.1z"/>
<path class="st19" d="M684.6,450.5c0,6.6-11.9,25.6-11.9,25.6s-11.9-19-11.9-25.6c0-6.6,5.3-11.9,11.9-11.9S684.6,444,684.6,450.5
	L684.6,450.5z"/>
<path class="st19" d="M704.2,486.8c-3.6,5.5-23.9,15-23.9,15s0.4-22.4,3.9-27.9c3.6-5.5,10.9-7.1,16.4-3.5S707.8,481.3,704.2,486.8
	L704.2,486.8z"/>
<path class="st19" d="M703.4,548.9c-5.8,3-28.2,0.9-28.2,0.9s11.6-19.2,17.5-22.1c5.9-3,13-0.6,15.9,5.3S709.2,545.9,703.4,548.9
	L703.4,548.9z"/>
<path class="st19" d="M692.1,595.7c-5.3,3.9-27.6,5.7-27.6,5.7s8.2-20.8,13.5-24.8c5.3-3.9,12.7-2.8,16.6,2.5
	C698.5,584.4,697.4,591.8,692.1,595.7L692.1,595.7z"/>
<path class="st19" d="M655.4,503.1c4.7,4.6,26.6,9.3,26.6,9.3s-5.4-21.8-10.1-26.3c-4.5-4.7-12-4.9-16.8-0.4
	c-4.7,4.5-4.9,12-0.4,16.8C655,502.7,655.2,502.9,655.4,503.1L655.4,503.1z"/>
<path class="st19" d="M643,558c5.8,3,28.2,0.9,28.2,0.9s-11.6-19.2-17.5-22.1c-5.9-3-13-0.6-15.9,5.3S637.2,555.1,643,558L643,558z"
	/>
<path class="st19" d="M638.2,613.1c5.3,3.9,27.6,5.7,27.6,5.7s-8.2-20.8-13.5-24.8c-5.3-3.9-12.7-2.8-16.6,2.5
	C631.9,601.7,633,609.2,638.2,613.1L638.2,613.1z"/>
</svg>
